<svg version="1.0" xmlns="http://www.w3.org/2000/svg"
 width="372.000000pt" height="138.000000pt" viewBox="0 0 372.000000 138.000000"
 preserveAspectRatio="xMidYMid meet">

<g transform="translate(0.000000,138.000000) scale(0.100000,-0.100000)"
fill="#000000" stroke="none">
<path d="M516 1068 c-21 -30 -20 -54 4 -78 41 -41 100 -13 100 48 0 52 -74 73
-104 30z"/>
<path d="M876 1068 c-21 -30 -20 -54 4 -78 27 -27 64 -25 88 5 34 43 7 95 -49
95 -17 0 -34 -8 -43 -22z"/>
<path d="M1235 1066 c-32 -49 10 -107 68 -93 30 8 50 49 38 81 -17 43 -81 50
-106 12z"/>
<path d="M1594 1066 c-14 -22 -14 -31 -4 -56 21 -50 74 -53 105 -6 14 21 15
29 3 53 -10 22 -21 29 -50 31 -30 3 -40 -1 -54 -22z"/>
<path d="M2060 1062 c-58 -58 -33 -130 61 -177 38 -20 49 -31 49 -49 0 -31
-27 -40 -85 -32 -38 6 -43 5 -48 -16 -8 -31 1 -38 60 -44 95 -12 153 28 153
104 0 39 -24 67 -85 100 -39 21 -50 32 -50 52 0 23 3 25 54 26 46 1 56 4 64
23 6 11 7 24 3 28 -4 4 -38 9 -76 11 -66 4 -71 3 -100 -26z"/>
<path d="M2404 1075 c-12 -31 4 -45 51 -45 l45 0 0 -146 0 -145 33 3 32 3 3
143 3 142 44 0 c43 0 45 1 45 30 l0 30 -125 0 c-102 0 -127 -3 -131 -15z"/>
<path d="M2830 945 c0 -140 1 -147 24 -170 46 -46 168 -43 212 6 16 18 19 40
22 165 l3 144 -34 0 -35 0 -4 -135 c-3 -148 -6 -155 -63 -155 -51 0 -55 12
-55 157 l0 133 -35 0 -35 0 0 -145z"/>
<path d="M516 708 c-21 -30 -20 -54 4 -78 39 -39 100 -14 100 43 0 55 -73 79
-104 35z"/>
<path d="M880 710 c-11 -11 -20 -29 -20 -40 0 -48 71 -78 104 -44 23 22 21 81
-3 94 -30 16 -59 12 -81 -10z"/>
<path d="M1239 709 c-35 -35 -6 -99 45 -99 42 0 72 44 57 83 -16 42 -68 50
-102 16z"/>
<path d="M1600 710 c-23 -23 -24 -30 -8 -65 21 -46 91 -45 108 1 25 65 -51
113 -100 64z"/>
<path d="M2040 425 c0 -167 1 -175 20 -175 17 0 19 8 22 78 l3 77 58 3 c42 2
57 7 57 17 0 12 -14 15 -60 15 l-60 0 0 60 0 60 76 0 c66 0 75 2 72 18 -3 14
-17 17 -96 20 l-92 3 0 -176z"/>
<path d="M2397 594 c-4 -4 -7 -83 -7 -176 l0 -169 98 3 c78 2 97 6 97 18 0 12
-17 16 -78 18 l-78 3 3 57 3 57 58 3 c41 2 57 7 57 17 0 10 -16 15 -57 17
l-58 3 0 55 0 55 75 5 c58 4 75 8 75 20 0 12 -18 16 -90 18 -50 1 -94 0 -98
-4z"/>
<path d="M2767 593 c-4 -3 -7 -82 -7 -175 0 -161 1 -168 20 -168 19 0 20 7 20
175 0 139 -3 175 -13 175 -8 0 -17 -3 -20 -7z"/>
<path d="M520 350 c-11 -11 -20 -29 -20 -40 0 -27 35 -60 64 -60 33 0 56 25
56 60 0 56 -60 80 -100 40z"/>
<path d="M880 350 c-11 -11 -20 -29 -20 -40 0 -11 9 -29 20 -40 41 -41 100
-13 100 48 0 51 -61 71 -100 32z"/>
<path d="M1239 349 c-35 -35 -6 -99 45 -99 42 0 72 44 57 83 -16 42 -68 50
-102 16z"/>
<path d="M1599 349 c-15 -15 -19 -28 -14 -47 17 -74 118 -67 118 8 0 57 -62
81 -104 39z"/>
</g>
</svg>
