<?xml version="1.0" standalone="no"?>
<!DOCTYPE svg PUBLIC "-//W3C//DTD SVG 20010904//EN"
 "http://www.w3.org/TR/2001/REC-SVG-20010904/DTD/svg10.dtd">
<svg version="1.0" xmlns="http://www.w3.org/2000/svg"
 width="48.000000pt" height="48.000000pt" viewBox="0 0 48.000000 48.000000"
 preserveAspectRatio="xMidYMid meet">

<g transform="translate(0.000000,48.000000) scale(0.100000,-0.100000)"
fill="#000000" stroke="none">
<path d="M205 443 c-51 -12 -86 -39 -123 -91 -21 -31 -42 -69 -46 -84 -6 -27
-5 -28 33 -28 36 0 39 2 45 33 8 41 51 85 94 93 29 6 32 10 32 45 0 22 -3 38
-7 38 -5 -1 -17 -3 -28 -6z"/>
<path d="M381 176 c-17 -18 -21 -29 -13 -41 8 -16 11 -15 25 6 13 18 19 21 29
11 9 -9 7 -17 -10 -35 l-22 -24 22 1 c14 1 24 -6 26 -17 5 -24 -28 -35 -43
-14 -11 15 -14 15 -30 -3 -13 -14 -22 -17 -29 -10 -6 6 -3 17 12 33 l21 23
-32 -1 c-51 -2 -60 -11 -41 -46 18 -35 75 -63 107 -53 79 24 96 116 32 172
-14 12 -27 22 -28 22 -2 0 -14 -11 -26 -24z"/>
</g>
</svg>
